<?xml version="1.0" encoding="UTF-8" standalone="no"?>
<svg width="1782px" height="128px" viewBox="0 0 1782 128" version="1.1" xmlns="http://www.w3.org/2000/svg" xmlns:xlink="http://www.w3.org/1999/xlink">
    <!-- Generator: Sketch 3.8.3 (29802) - http://www.bohemiancoding.com/sketch -->
    <title>Group 15</title>
    <desc>Created with Sketch.</desc>
    <defs>
        <rect id="path-1" x="0" y="0" width="150" height="115" rx="5"></rect>
        <mask id="mask-2" maskContentUnits="userSpaceOnUse" maskUnits="objectBoundingBox" x="-4" y="-4" width="158" height="123">
            <rect x="-4" y="-4" width="158" height="123" fill="white"></rect>
            <use xlink:href="#path-1" fill="black"></use>
        </mask>
        <linearGradient x1="75.9376417%" y1="61.5942533%" x2="6.89231131%" y2="70.4705126%" id="linearGradient-3">
            <stop stop-color="#EEEEEE" offset="0%"></stop>
            <stop stop-color="#FFFFFF" stop-opacity="0" offset="100%"></stop>
        </linearGradient>
        <rect id="path-4" x="0" y="2" width="260" height="115" rx="5"></rect>
        <mask id="mask-5" maskContentUnits="userSpaceOnUse" maskUnits="objectBoundingBox" x="-4" y="-4" width="268" height="123">
            <rect x="-4" y="-2" width="268" height="123" fill="white"></rect>
            <use xlink:href="#path-4" fill="black"></use>
        </mask>
    </defs>
    <g id="Page-1" stroke="none" stroke-width="1" fill="none" fill-rule="evenodd">
        <g id="1" transform="translate(-71.000000, -882.000000)">
            <g id="Group-15" transform="translate(73.000000, 882.000000)">
                <g id="Group-13" transform="translate(1533.000000, 0.000000)">
                    <path d="M3.82945736,9.28939944 L3.82945736,9.28939944 L3.82945736,117.710601 C3.82945736,120.551287 5.96995215,122.869919 8.61038628,122.869919 L238.389614,122.869919 C241.028317,122.869919 243.170543,120.560013 243.170543,117.710601 L243.170543,9.28939944 C243.170543,6.44871338 241.030048,4.1300813 238.389614,4.1300813 L8.61038628,4.1300813 C5.97168327,4.1300813 3.82945736,6.43998671 3.82945736,9.28939944 L3.82945736,9.28939944 Z M0,9.28939944 C0,4.15997021 3.85583824,0 8.61038628,0 L238.389614,0 C243.143722,0 247,4.16634714 247,9.28939944 L247,117.710601 C247,122.84003 243.144162,127 238.389614,127 L8.61038628,127 C3.85627786,127 0,122.833653 0,117.710601 L0,9.28939944 Z M3.82945736,62.9837398 L243.170543,62.9837398 L243.170543,123.902439 L3.82945736,123.902439 L3.82945736,62.9837398 Z" id="Combined-Shape" fill-opacity="0.2" fill="#FFFFFF"></path>
                    <path d="M23,32.0081301 L230.408912,32.0081301" id="Line" stroke="#FFFFFF" stroke-width="4.5" stroke-linecap="round" opacity="0.2"></path>
                    <path d="M73,49.5609756 L73,62.7256098" id="Line" stroke="#FFFFFF" stroke-width="4.5" opacity="0.6"></path>
                </g>
                <g id="Group-10" transform="translate(1159.000000, 7.000000)">
                    <use id="Rectangle-242" stroke="#FFFFFF" mask="url(#mask-2)" stroke-width="8" opacity="0.2" xlink:href="#path-1"></use>
                    <g id="Group-11" transform="translate(25.000000, 25.000000)" fill="#FFFFFF">
                        <g id="iconmonstr-light-bulb-18" opacity="0.2" transform="translate(44.506137, 0.000000)" fill-opacity="0.5">
                            <path d="M32.7878434,51.6596045 L21.8585622,51.6596045 C21.1044418,51.6596045 20.4924021,52.2686441 20.4924021,53.0190678 C20.4924021,53.7694915 21.1044418,54.3785311 21.8585622,54.3785311 L32.7878434,54.3785311 C33.5419638,54.3785311 34.1540035,53.7694915 34.1540035,53.0190678 C34.1540035,52.2686441 33.5419638,51.6596045 32.7878434,51.6596045 L32.7878434,51.6596045 Z M32.7878434,57.0974576 L21.8585622,57.0974576 C21.1044418,57.0974576 20.4924021,57.7064972 20.4924021,58.4569209 C20.4924021,59.2073446 21.1044418,59.8163842 21.8585622,59.8163842 L32.7878434,59.8163842 C33.5419638,59.8163842 34.1540035,59.2073446 34.1540035,58.4569209 C34.1540035,57.7064972 33.5419638,57.0974576 32.7878434,57.0974576 L32.7878434,57.0974576 Z M33.4709234,62.5353107 L21.1754822,62.5353107 L24.4214787,64.6615113 C24.842256,65.0367232 25.4597604,65.2542373 26.1018556,65.2542373 L28.5472823,65.2542373 C29.1866452,65.2542373 29.8068819,65.0367232 30.2276593,64.6615113 L33.4709234,62.5353107 L33.4709234,62.5353107 Z M43.7171245,25.0168432 C43.7171245,34.7206921 34.9354471,41.2841808 34.9354471,48.940678 L29.5008621,48.940678 C29.4926651,43.8889124 31.8779807,39.7262359 34.2031853,35.7076624 C36.282481,32.1050847 38.2524839,28.7009887 38.2524839,25.0168432 C38.2524839,17.9693856 32.5829193,14.7610523 27.3150058,14.7610523 C22.0552893,14.7610523 16.3939217,17.9693856 16.3939217,25.0168432 C16.3939217,28.7009887 18.3639246,32.1050847 20.4432203,35.7076624 C22.7684249,39.7262359 25.1564728,43.8889124 25.1428112,48.940678 L19.7109585,48.940678 C19.7109585,41.2841808 10.9292811,34.7206921 10.9292811,25.0168432 C10.9292811,14.8942797 19.1207773,9.32319915 27.3150058,9.32319915 C35.514699,9.32319915 43.7171245,14.8997175 43.7171245,25.0168432 L43.7171245,25.0168432 Z M54.6464056,23.138065 L54.6464056,26.8684322 L47.7117767,26.8684322 C47.7664231,26.2621116 47.8156049,25.6503531 47.8156049,25.0168432 C47.8156049,24.3724576 47.7691555,23.7552613 47.7199737,23.1407839 L54.6464056,23.1407839 L54.6464056,23.138065 Z M25.5526593,5.32093927 L25.5526593,-4.4408921e-16 L29.2986704,-4.4408921e-16 L29.2986704,5.33997175 C28.6374489,5.28015537 27.9762274,5.24480932 27.3150058,5.24480932 C26.727557,5.24480932 26.1401081,5.27199859 25.5526593,5.32093927 L25.5526593,5.32093927 Z M15.3255845,8.83923023 L12.4839714,3.56451271 L15.7846143,1.80264831 L18.6180304,7.05833333 C17.4759205,7.55045904 16.3720631,8.14862288 15.3255845,8.83923023 L15.3255845,8.83923023 Z M44.2499269,13.5565678 L49.5560929,9.76638418 L51.7392168,12.7979873 L46.127031,16.8029661 C45.6051578,15.6338277 44.9712595,14.5544138 44.2499269,13.5565678 L44.2499269,13.5565678 Z M36.0256429,7.06105226 L38.8617914,1.80264831 L42.1624342,3.56451271 L39.3180888,8.84194915 C38.2743425,8.15134181 37.1704851,7.55589689 36.0256429,7.06105226 L36.0256429,7.06105226 Z M8.51664231,16.8029661 L2.90445646,12.8007062 L5.08758036,9.76910311 L10.3937463,13.5565678 C9.67241379,14.5516949 9.04124781,15.6311088 8.51664231,16.8029661 L8.51664231,16.8029661 Z M45.9685564,33.722846 L52.4004383,36.316702 L50.9960257,39.7724576 L44.370149,37.1024718 C44.9439363,36.0230579 45.4849357,34.8947034 45.9685564,33.722846 L45.9685564,33.722846 Z M10.1533022,36.8632062 L3.71595558,39.7452684 L2.18039158,36.3438912 L8.57402104,33.4835805 C9.04671245,34.6608757 9.58771186,35.7810734 10.1533022,36.8632062 L10.1533022,36.8632062 Z M6.93462887,26.8684322 L-8.8817842e-16,26.8684322 L-8.8817842e-16,23.138065 L6.92643191,23.138065 C6.87725015,23.7525424 6.8308007,24.3724576 6.8308007,25.0168432 C6.8308007,25.6503531 6.87998247,26.2621116 6.93462887,26.8684322 L6.93462887,26.8684322 Z" id="Shape"></path>
                        </g>
                        <g id="iconmonstr-light-bulb-18" opacity="0.5" transform="translate(0.000000, 8.056079)">
                            <path d="M21.9657121,42.8366491 L10.982856,42.8366491 C10.225039,42.8366491 9.60999903,43.4439535 9.60999903,44.1922393 C9.60999903,44.9405251 10.225039,45.5478294 10.982856,45.5478294 L21.9657121,45.5478294 C22.7235291,45.5478294 23.3385691,44.9405251 23.3385691,44.1922393 C23.3385691,43.4439535 22.7235291,42.8366491 21.9657121,42.8366491 L21.9657121,42.8366491 Z M21.9657121,48.2590098 L10.982856,48.2590098 C10.225039,48.2590098 9.60999903,48.8663142 9.60999903,49.6145999 C9.60999903,50.3628857 10.225039,50.9701901 10.982856,50.9701901 L21.9657121,50.9701901 C22.7235291,50.9701901 23.3385691,50.3628857 23.3385691,49.6145999 C23.3385691,48.8663142 22.7235291,48.2590098 21.9657121,48.2590098 L21.9657121,48.2590098 Z M22.6521406,53.6813704 L10.2964275,53.6813704 L13.5583358,55.8015134 C13.9811757,56.1756563 14.6017071,56.3925507 15.2469499,56.3925507 L17.7043639,56.3925507 C18.346861,56.3925507 18.9701381,56.1756563 19.392978,55.8015134 L22.6521406,53.6813704 L22.6521406,53.6813704 Z M32.9485681,16.2697931 C32.9485681,25.9459957 24.1238433,32.490785 24.1238433,40.1254688 L18.6626181,40.1254688 C18.654381,35.0880958 21.0513893,30.9372787 23.3879919,26.9301542 C25.4774803,23.3378402 27.4571401,19.9434425 27.4571401,16.2697931 C27.4571401,9.24241373 21.7597835,6.04322094 16.4660469,6.04322094 C11.1805474,6.04322094 5.49142801,9.24241373 5.49142801,16.2697931 C5.49142801,19.9434425 7.47108781,23.3378402 9.56057617,26.9301542 C11.8971788,30.9372787 14.2969328,35.0880958 14.2832043,40.1254688 L8.82472482,40.1254688 C8.82472482,32.490785 3.55271368e-15,25.9459957 3.55271368e-15,16.2697931 C3.55271368e-15,6.17606878 8.23165059,0.620860294 16.4660469,0.620860294 C24.7059346,0.620860294 32.9485681,6.18149114 32.9485681,16.2697931 L32.9485681,16.2697931 Z" id="Shape"></path>
                        </g>
                    </g>
                </g>
                <g id="Wijzer" transform="translate(0.000000, 3.000000)">
                    <path d="M558.5,123 C592.465512,123 620,95.4655121 620,61.5 C620,27.5344879 592.465512,0 558.5,0 C524.534488,0 497,27.5344879 497,61.5 C497,95.4655121 524.534488,123 558.5,123 Z" id="Oval-15" stroke="#FFFFFF" stroke-width="4" opacity="0.2"></path>
                    <path d="M510,62 C510,89.0619527 531.938047,111 559,111 L559,111 C586.061953,111 608,89.0619527 608,62" id="Oval-15" stroke="#FFFFFF" stroke-width="4" fill="#FFFFFF" opacity="0.1"></path>
                    <circle id="Oval-14" fill="#003E66" cx="559" cy="63" r="15"></circle>
                    <path d="M553.849286,57.7022811 C551.491772,59.5921767 550.419185,62.7971052 551.398392,65.8374798 C552.669797,69.7851118 556.916667,71.9603826 560.884691,70.6955111 C564.851608,69.4317404 567.038116,65.2055945 565.76671,61.2579625 C564.867265,58.4635881 562.47497,56.5572292 559.747015,56.1313099 L545,13 L553.849286,57.7022777 Z" id="Combined-Shape" fill="#FFFFFF" opacity="0.5"></path>
                    <g id="Group-6">
                        <g id="Group-2" stroke="#FFFFFF" stroke-width="4" opacity="0.2">
                            <path d="M61.5,123 C95.4655121,123 123,95.4655121 123,61.5 C123,27.5344879 95.4655121,0 61.5,0 C27.5344879,0 0,27.5344879 0,61.5 C0,95.4655121 27.5344879,123 61.5,123 Z" id="Oval-15"></path>
                        </g>
                        <path d="M65.9166667,61.5 L57.0833333,61.5 L57.0833333,35 L65.9166667,35 L65.9166667,61.5 L65.9166667,61.5 Z M75.220375,38.8734167 L72.5416667,42.4045417 C79.1313333,46.229375 83.5833333,53.3468333 83.5833333,61.5 C83.5833333,73.67675 73.67675,83.5833333 61.5,83.5833333 C49.32325,83.5833333 39.4166667,73.67675 39.4166667,61.5 C39.4166667,53.3468333 43.8686667,46.229375 50.4583333,42.4045417 L47.779625,38.8734167 C40.12775,43.5175417 35,51.8959583 35,61.5 C35,76.134625 46.865375,88 61.5,88 C76.134625,88 88,76.134625 88,61.5 C88,51.8959583 82.87225,43.5175417 75.220375,38.8734167 L75.220375,38.8734167 Z" id="Shape" fill="#FFFFFF" opacity="0.5"></path>
                    </g>
                </g>
                <g id="Radar" transform="translate(1361.000000, 3.000000)">
                    <path d="M62.5,123 C96.4655121,123 124,95.4655121 124,61.5 C124,27.5344879 96.4655121,0 62.5,0 C28.5344879,0 1,27.5344879 1,61.5 C1,95.4655121 28.5344879,123 62.5,123 Z" id="Oval-15" stroke="#FFFFFF" stroke-width="4" opacity="0.2"></path>
                    <path d="M62.5,108 C88.1812409,108 109,87.1812409 109,61.5 C109,35.8187591 88.1812409,15 62.5,15 C36.8187591,15 16,35.8187591 16,61.5 C16,87.1812409 36.8187591,108 62.5,108 Z" id="Oval-15" stroke="#FFFFFF" stroke-width="2" opacity="0.2"></path>
                    <path d="M62.5,93 C79.8969696,93 94,78.8969696 94,61.5 C94,44.1030304 79.8969696,30 62.5,30 C45.1030304,30 31,44.1030304 31,61.5 C31,78.8969696 45.1030304,93 62.5,93 Z" id="Oval-15" stroke="#FFFFFF" stroke-width="2" opacity="0.2"></path>
                    <path d="M62.5,78 C71.6126984,78 79,70.6126984 79,61.5 C79,52.3873016 71.6126984,45 62.5,45 C53.3873016,45 46,52.3873016 46,61.5 C46,70.6126984 53.3873016,78 62.5,78 Z" id="Oval-15" stroke="#FFFFFF" stroke-width="2" opacity="0.2"></path>
                    <path d="M62.3611111,2 C47.6393329,2 28.4760281,9.2434014 18,22.6377583 C4.75373535,39.5740622 2,63.5 2,63.5 L62.3611111,60 L107,21.5 C93.5,8.5 80.3032128,2 62.3611111,2 Z" id="Oval-15" fill="url(#linearGradient-3)" opacity="0.2"></path>
                    <path d="M62.5,1.5 L62.5,121.5" id="Line" stroke="#FFFFFF" stroke-linecap="square" opacity="0.2"></path>
                    <path d="M123.5,60.5 L0.5,60.5" id="Line" stroke="#FFFFFF" stroke-linecap="square" opacity="0.2"></path>
                    <path d="M108,24 L64,59" id="Line" stroke="#FFFFFF" stroke-width="4" stroke-linecap="round" opacity="0.5"></path>
                </g>
                <g id="Group-12" transform="translate(177.000000, 5.000000)">
                    <use id="Rectangle-242" stroke="#FFFFFF" mask="url(#mask-5)" stroke-width="8" opacity="0.2" xlink:href="#path-4"></use>
                    <g id="Group-7" transform="translate(51.000000, 0.000000)" font-family="Silom" fill="#FFFFFF" font-weight="bold">
                        <g id="Group-8">
                            <text id="04-" opacity="0.5" font-size="74">
                                <tspan x="0" y="90">0</tspan>
                                <tspan x="49.358" y="90" letter-spacing="-11">4</tspan>
                                <tspan x="87.716" y="90"> </tspan>
                            </text>
                            <text id="kt" opacity="0.2" font-size="40">
                                <tspan x="108" y="90">kt</tspan>
                            </text>
                        </g>
                    </g>
                </g>
            </g>
        </g>
    </g>
</svg>