<?xml version="1.0" encoding="UTF-8" standalone="no"?>
<svg width="400px" height="400px" viewBox="0 0 400 400" version="1.1" xmlns="http://www.w3.org/2000/svg" xmlns:xlink="http://www.w3.org/1999/xlink">
    <!-- Generator: Sketch 3.8.3 (29802) - http://www.bohemiancoding.com/sketch -->
    <title>Fill 1</title>
    <desc>Created with Sketch.</desc>
    <defs></defs>
    <g id="Page-1" stroke="none" stroke-width="1" fill="none" fill-rule="evenodd">
        <g id="1" transform="translate(-760.000000, -627.000000)" fill="#954F11">
            <g id="Group-15" transform="translate(73.000000, 627.000000)">
                <path d="M970.610874,274.997295 L926.251662,230.690986 C931.71751,223.681331 935.384653,215.334672 936.483594,206.062209 L999.048671,206.062209 C997.637121,232.451215 987.171935,256.500463 970.610874,274.997295 L970.610874,274.997295 Z M893.095875,312.293949 L893.095875,249.483594 C902.296197,248.350988 910.739044,244.777627 917.659725,239.258876 L961.990081,283.608469 C943.522105,300.256099 919.513737,310.892018 893.095875,312.293949 L893.095875,312.293949 Z M893.095875,218.994601 C894.101033,218.580996 895.139856,218.217888 896.125777,217.691263 L908.156413,229.70747 C903.746222,232.886463 898.629053,235.089154 893.095875,235.971673 L893.095875,218.994601 Z M893.095875,163.93214 C898.629053,164.889204 903.746222,167.082276 908.156413,170.237222 L895.700148,182.688678 C894.853699,182.246216 893.985608,181.856657 893.095875,181.587332 L893.095875,163.93214 Z M923.034195,206.062209 C922.072321,211.643482 919.917724,216.777483 916.724303,221.141985 L904.590266,209.007947 C905.063989,208.077335 905.43431,207.0842 905.744514,206.062209 L923.034195,206.062209 Z M905.607447,193.882483 C905.249149,192.975917 904.854781,192.076565 904.381058,191.169999 L916.724303,178.826755 C919.917724,183.191257 922.072321,188.354114 923.034195,193.882483 L905.607447,193.882483 Z M893.095875,88.2711522 C919.374265,89.6658691 943.274423,100.16953 961.742398,116.675283 L917.659725,160.678602 C910.739044,155.229587 902.296197,151.548016 893.095875,150.475526 L893.095875,88.2711522 Z M999.000577,193.882483 L936.483594,193.882483 C935.384653,184.682161 931.71751,176.26817 926.251662,169.277753 L970.331931,125.219127 C986.938681,143.677484 997.497649,167.563213 999.000577,193.882483 L999.000577,193.882483 Z M880.916149,150.475526 C871.696589,151.548016 863.246528,155.229587 856.277753,160.678602 L812.274435,116.675283 C830.718363,100.16953 854.632949,89.6658691 880.916149,88.2711522 L880.916149,150.475526 Z M880.916149,181.587332 C880.024011,181.856657 879.107826,182.246216 878.239735,182.688678 L865.805112,170.237222 C870.217708,167.082276 875.378161,164.889204 880.916149,163.93214 L880.916149,181.587332 Z M880.916149,235.971673 C875.378161,235.089154 870.217708,232.886463 865.805112,229.70747 L877.835748,217.691263 C878.876976,218.217888 879.836445,218.580996 880.916149,218.994601 L880.916149,235.971673 Z M850.973019,193.882483 C851.910846,188.354114 854.067848,183.191257 857.239627,178.826755 L869.580467,191.169999 C869.14041,192.076565 868.712376,192.975917 868.409385,193.882483 L850.973019,193.882483 Z M868.238653,206.062209 C868.52481,207.0842 868.921583,208.077335 869.392901,209.007947 L857.239627,221.141985 C854.067848,216.777483 851.910846,211.643482 850.973019,206.062209 L868.238653,206.062209 Z M880.916149,312.293949 C854.471835,310.892018 830.461062,300.256099 811.971444,283.608469 L856.277753,239.258876 C863.246528,244.777627 871.696589,248.350988 880.916149,249.483594 L880.916149,312.293949 Z M774.960948,206.062209 L837.453884,206.062209 C838.600919,215.296197 842.270467,223.681331 847.688221,230.690986 L803.403554,274.997295 C786.816042,256.500463 776.302762,232.451215 774.960948,206.062209 L774.960948,206.062209 Z M803.66326,125.219127 L847.688221,169.277753 C842.270467,176.26817 838.600919,184.682161 837.453884,193.882483 L775.009042,193.882483 C776.511969,167.563213 787.049296,143.677484 803.66326,125.219127 L803.66326,125.219127 Z M1065.23761,185.975881 C1056.6625,185.975881 1044.41545,189.26068 1038.07429,193.882483 L1029.48476,193.882483 C1027.94817,159.206935 1014.00821,127.659881 991.868283,103.689988 L998.02668,97.5484243 C1005.71446,96.4711258 1016.76879,90.0073343 1022.94161,83.8200815 C1031.42294,75.3844489 1033.85648,64.0511717 1028.38341,58.5853242 C1022.94161,53.1146674 1011.60593,55.5770641 1003.13904,64.0511717 C997.031141,70.1157856 990.67556,81.0979789 989.528526,88.8578952 L983.310012,95.0764088 C959.277597,73.128855 927.732948,59.2466124 893.095875,57.7965878 L893.095875,49.0796071 C897.746534,42.84907 900.980835,30.4360895 900.980835,21.7623931 C900.980835,9.76061368 894.714227,2.27373675e-13 886.992786,2.27373675e-13 C879.271345,2.27373675e-13 873.007142,9.76061368 873.007142,21.7623931 C873.007142,30.3687583 876.22461,42.5532938 880.916149,48.8944464 L880.916149,57.7965878 C846.255029,59.2466124 814.715189,73.128855 790.685179,95.0764088 L784.558043,88.9853434 C783.526433,81.2783302 777.007334,70.2215917 770.882603,64.0511717 C762.384449,55.5313751 751.053576,53.1146674 745.602157,58.5853242 C740.114667,64.0511717 742.579469,75.3844489 751.099265,83.8200815 C757.15426,89.9207657 768.083551,96.2931791 775.877133,97.4642604 L782.138931,103.689988 C760.01343,127.659881 746.051833,159.206935 744.503216,193.882483 L736.074798,193.882483 C729.880331,189.222205 717.469755,185.975881 708.762393,185.975881 C696.760614,185.975881 687,192.244893 687,200.014428 C687,207.682966 696.760614,213.968811 708.762393,213.968811 C717.351926,213.968811 729.577341,210.727297 735.889637,206.062209 L744.503216,206.062209 C745.890719,240.870015 759.78258,272.532493 781.814298,296.524029 L776.0142,302.372221 C768.247069,303.425473 757.223996,309.944572 751.099265,316.107778 C742.579469,324.565053 740.114667,335.924781 745.556468,341.405057 C751.053576,346.839644 762.384449,344.413317 770.882603,335.924781 C776.930384,329.862572 783.271537,318.868356 784.418571,311.146914 L790.403831,305.168869 C814.460293,327.311202 846.089106,341.311274 880.916149,342.838249 L880.916149,350.877109 C876.200563,357.15093 873.007142,369.508603 873.007142,378.244821 C873.007142,390.261028 879.271345,400 886.992786,400 C894.714227,400 900.980835,390.261028 900.980835,378.244821 C900.980835,369.64567 897.746534,357.408231 893.095875,351.110363 L893.095875,342.838249 C927.896466,341.311274 959.510851,327.311202 983.557694,305.168869 L989.403482,310.993014 C990.487995,318.714456 996.985452,329.754361 1003.13904,335.924781 C1011.57708,344.413317 1022.94161,346.839644 1028.38341,341.405057 C1033.85648,335.924781 1031.42294,324.565053 1022.94161,316.107778 C1016.86257,310.023927 1005.90202,303.697202 998.118058,302.49486 L992.132799,296.524029 C1014.19578,272.532493 1028.13573,240.870015 1029.48476,206.062209 L1037.92039,206.062209 C1044.1365,210.768176 1056.5567,213.968811 1065.23761,213.968811 C1077.23939,213.968811 1086.99279,207.682966 1086.99279,200.014428 C1086.99279,192.244893 1077.23939,185.975881 1065.23761,185.975881 L1065.23761,185.975881 Z" id="Fill-1"></path>
            </g>
        </g>
    </g>
</svg>